<mxfile host="app.diagrams.net" modified="2023-10-12T00:27:10.356Z" agent="Mozilla/5.0 (Windows NT 10.0; Win64; x64) AppleWebKit/537.36 (KHTML, like Gecko) Chrome/117.0.0.0 Safari/537.36" etag="HEUXzNqt6yqPKXUDGwYR" version="22.0.3" type="github">
  <diagram name="Página-1" id="nLJvat1ITgbOrPoUrWrr">
    <mxGraphModel dx="4759" dy="1736" grid="1" gridSize="10" guides="1" tooltips="1" connect="1" arrows="1" fold="1" page="1" pageScale="1" pageWidth="827" pageHeight="1169" math="0" shadow="0">
      <root>
        <mxCell id="0" />
        <mxCell id="1" parent="0" />
        <mxCell id="sTD4uEu4OX_fFMcIrCe0-26" value="" style="endArrow=none;html=1;rounded=0;" parent="1" edge="1">
          <mxGeometry relative="1" as="geometry">
            <mxPoint x="-820" y="40" as="sourcePoint" />
            <mxPoint x="1650" y="40" as="targetPoint" />
          </mxGeometry>
        </mxCell>
        <mxCell id="sTD4uEu4OX_fFMcIrCe0-27" value="" style="resizable=0;html=1;whiteSpace=wrap;align=right;verticalAlign=bottom;" parent="sTD4uEu4OX_fFMcIrCe0-26" connectable="0" vertex="1">
          <mxGeometry x="1" relative="1" as="geometry" />
        </mxCell>
        <mxCell id="sTD4uEu4OX_fFMcIrCe0-30" value="&lt;div style=&quot;&quot;&gt;&lt;div style=&quot;line-height: 19px;&quot;&gt;&lt;img alt=&quot;zkSync Era – L2BEAT&quot; src=&quot;data:image/png;base64,iVBORw0KGgoAAAANSUhEUgAAAOEAAADhCAMAAAAJbSJIAAAAWlBMVEXy8vIAAAD////29vb5+fnExMR/f3/i4uInJyczMzPl5eX6+vrp6ens7OwwMDArKyuhoaHR0dFpaWnc3NxkZGQjIyPKysrV1dUbGxuWlpZfX1+cnJxGRkZ7e3t95XI9AAAF7ElEQVR4nO2dj57aIAyAobDpXT1P3Z1ut937v+a09U9tERIawKb5HsD2+5E0gRZUlZPaGqOmhDG2dqsoh9203LoYh+XA0Ja+y5HYgOHU/U5Yj2Fd+uaIqB8ZchjAFus2nO4DZohxGZa+KWKGhqXviJy+Yen7ScC9IaccvGC6hnyeol3szZBLHexTXw1L30kyLoY8Y/SEPRuWvo+EtIZ8h7AZRMV6CE+DqNg+SFvqoyHHYn/DHA1L30Ni5mDIOw2Piag414oTRvF+0MzDUBAEQRAEQRAEQRAEQRAEQRAEQZgUSbYuPNN+CPNrS383ZvvraRTNm/6RwPCHfnsSRfO6TGS4fH0KRbN40YkM9cviCRTN61onM9Tr8qNoVkud0FAvV4UVzeJdJzXU72UDtcnBtIZlc9Gs2hFMaqjfywXqqUxkMCxXNMxirbMY6nWZQDWvLzqToX4pMYrmbamzGepl/gauk4M5DPPn4rVM5DLMXTTMaq0zG+p1zqJxbtXyGuZs4C6tWmbDfA1cPwezGebKxVurlt0wTwPXKxN5DXMUDVeIZjRMH6h3rVoJw9QN3H2rVsQwbQNnFg8EcxrqZbpAfZCDuQ3T5eKgVStlmKqBG7ZqHfaVjcJzpx7DNA1cd0Y/ZPczhu/vw+M79RmmmPU/KhOj+L2PHMMEReNhmRjDl/e57zekLhruVm0kG//mzoAhbQPnKRPRrPeB3ashQ8qi0b58oeUjGGRBQ7rXNt4yEcnGVyeghlRFwzGjH8v7FrC/GmBIM+tPkIPhCIUaUuSic0Y/jg3sIwuQ4fhZP32Z+DwA98fDDMcWDX+rFsMOXKiBhuMaOPpWDRihGMMxDRx9qwaN0Obqe+ivRjdw5Dn4gdn+b+wf8A9H5iJ5mdhgbsO8fSB+Oqpo+Gb0MSz3mDNG6i0ufiJm/dStmn+m1L+43WB/H93AUbdqG8zxy+btC38FZANHnINLSB96xe6j8gOVi8St2gcqgmp0hJ5BNHDEZQIXoSoiQs+AiwZtqwaaKV2x288R1wI2cLSt2g4Toab+O+5qoAaOtlUDzOW7l8ZUeSeABo40B3NG6JlgLpKWCfhMSRFE6JlA0SBdVUPMlEgi9Ix/Ba7+R3SZU5XH9KEW2Yf6+OdLDbox3KFmSia2yjsIrKJS5eFfXB+6I7loQ7B5I3mWfqIitN4S9oiAvoagHsLWQy/Xw8+UPIAWNEb3NLgIXRFGKHRRalxfWjBC4QuLY3LxC/UMjZ4pOUEsSMXPDwNvPfuXoaryDagF/siiEXzreQd2tSkAcr0tap0Gt9pEG6H4F20Ra23ImVL8XN5FxMtS7HopdrWJYKbUIeorKVwuoqq8ouxDT0S+KMUUjT+oCFWkz9AR7xARDZzv46Y+9kDrN+bjIXgDB/82kXSm1DDqAzBwAwc2JJ0pNYz8iA+ai1BDe6B9hhJ8/AVs4GCG9BFKsQMDVjRAhnSrTVdIvm0DNXAQQ9qZUgPRTihIAxc2pJ3Lt5B9DA1YgQsaJohQyiMlwrkYMqzj3np6Id2UECwaAUPimVID8SavUAPnNaSeKbWC1JuDAg2cz9Dsf9MLJtjg5W/gPIbm8P0dtRvD194lOWXBWzS8Yxi3nabyfNeWaNMz+31PM9i7NoP9hzPYQzqDfcAz2Ms9g/34D2b9nM5UcAcqq3MxnLN+XmebuBo4ZufTOBo4bmcMDXOR3TlRg6LB76yvfgPH8Lw2xf/MvftZP8tzExX/sy8V//NLO0WD6xm0twaO7TnCiv9Z0Ir/ed6K/5nsiv+5+or/fyMo/v9vofj/R4kgCIIgCIIgCIIgCIIgCIIgCIIAgf8LHu6GZgaGmBNJpkitqtK3kJhqDoa8E9EcDXknYn005B2m1ckQc0be1LCNIedBrFpDvoNoz4Z8B7G6GHJ9nNZXQ6Y10VQ3Q5aKreDFkGMqVveG/BSrviE3xWpoyCoXTeUyZKTYEbwzZFMX6+qRIY8Gzt4r9Qyn72j7QgPDY6xONx9NPdRxGLaWE9sLcLzfwei1/AdgilDXb3LajwAAAABJRU5ErkJggg==&quot;&gt;&lt;br&gt;&lt;/div&gt;&lt;/div&gt;" style="text;html=1;strokeColor=none;fillColor=none;align=center;verticalAlign=middle;whiteSpace=wrap;rounded=0;" parent="1" vertex="1">
          <mxGeometry x="-751" y="1341.17" width="210" height="230" as="geometry" />
        </mxCell>
        <mxCell id="sTD4uEu4OX_fFMcIrCe0-31" value="&lt;font style=&quot;font-size: 15px;&quot;&gt;Made by Catellatech C4 Wardens&lt;/font&gt;" style="text;html=1;strokeColor=none;fillColor=none;align=center;verticalAlign=middle;whiteSpace=wrap;rounded=0;" parent="1" vertex="1">
          <mxGeometry x="-773.6200000000001" y="1500" width="255.25" height="50" as="geometry" />
        </mxCell>
        <mxCell id="sTD4uEu4OX_fFMcIrCe0-85" value="&lt;font style=&quot;font-size: 45px;&quot;&gt;&lt;u&gt;DefaultUpgrade&lt;span style=&quot;font-size: 45px;&quot;&gt;&lt;span style=&quot;background-color: initial;&quot;&gt;&amp;nbsp;Contract&lt;/span&gt;&lt;/span&gt;&lt;/u&gt;&lt;br&gt;&lt;/font&gt;" style="text;html=1;strokeColor=none;fillColor=none;align=center;verticalAlign=middle;whiteSpace=wrap;rounded=0;fontColor=#2B2B2B;" parent="1" vertex="1">
          <mxGeometry x="122" y="70" width="584" height="70" as="geometry" />
        </mxCell>
        <mxCell id="lfMM5lCk48rUv3l5oZ-4-495" style="edgeStyle=orthogonalEdgeStyle;shape=connector;rounded=0;orthogonalLoop=1;jettySize=auto;html=1;exitX=1;exitY=0.5;exitDx=0;exitDy=0;labelBackgroundColor=default;strokeColor=default;strokeWidth=2;align=center;verticalAlign=middle;fontFamily=Helvetica;fontSize=11;fontColor=default;endArrow=classic;" edge="1" parent="1" source="sTD4uEu4OX_fFMcIrCe0-86">
          <mxGeometry relative="1" as="geometry">
            <mxPoint x="-279.9999999999998" y="282.7692307692307" as="targetPoint" />
          </mxGeometry>
        </mxCell>
        <mxCell id="sTD4uEu4OX_fFMcIrCe0-86" value="&lt;font color=&quot;#ccffff&quot; style=&quot;font-size: 30px;&quot;&gt;Purpose&lt;/font&gt;" style="text;html=1;strokeColor=#A9C4EB;fillColor=#2c2e40;align=center;verticalAlign=middle;whiteSpace=wrap;rounded=1;gradientColor=#565872;strokeWidth=3;perimeterSpacing=2;shadow=0;dashed=0;fontColor=#FFFFFF;" parent="1" vertex="1">
          <mxGeometry x="-800" y="247.06" width="310" height="70" as="geometry" />
        </mxCell>
        <mxCell id="sTD4uEu4OX_fFMcIrCe0-89" value="" style="endArrow=none;html=1;rounded=0;" parent="1" edge="1">
          <mxGeometry relative="1" as="geometry">
            <mxPoint x="-827" y="1610" as="sourcePoint" />
            <mxPoint x="1650" y="1610" as="targetPoint" />
          </mxGeometry>
        </mxCell>
        <mxCell id="sTD4uEu4OX_fFMcIrCe0-90" value="" style="resizable=0;html=1;whiteSpace=wrap;align=right;verticalAlign=bottom;" parent="sTD4uEu4OX_fFMcIrCe0-89" connectable="0" vertex="1">
          <mxGeometry x="1" relative="1" as="geometry" />
        </mxCell>
        <mxCell id="sTD4uEu4OX_fFMcIrCe0-105" value="" style="html=1;shadow=0;dashed=0;align=center;verticalAlign=middle;shape=mxgraph.arrows2.arrow;dy=0.6;dx=40;direction=south;notch=0;rounded=1;fontFamily=Helvetica;fontSize=12;fontColor=#FFFFFF;fillColor=#2c2e40;gradientColor=#565872;strokeColor=#1E69FF;strokeWidth=3;" parent="1" vertex="1">
          <mxGeometry x="-680" y="335" width="70" height="130" as="geometry" />
        </mxCell>
        <mxCell id="lfMM5lCk48rUv3l5oZ-4-71" value="&lt;img alt=&quot;3d notification icon 8845721 PNG&quot; src=&quot;data:image/jpeg;base64,/9j/4AAQSkZJRgABAQAAAQABAAD/2wCEAAkGBxASEA8SEBMVEhAQDxUPEBYPDxAQEA8QFRUWFxYRFRUYHSggGBonGxYVITEhJSktLi4uFx8zODMuNygtLi0BCgoKDg0OGxAQGislICYrLS0tLS0tLS0tLS0wKy8tLy8tKy0tKy0tKysvLS0tLS0tLS0vLS0tKy0tLS0rLS0tLf/AABEIAOEA4QMBIgACEQEDEQH/xAAbAAEAAgMBAQAAAAAAAAAAAAAABAUDBgcCAf/EAEAQAAICAQEEBwQHBQgDAQAAAAECAAMRBAUSITEGE0FRYXGBIjKRoQcjQlJyscEUYoKi0UNjc7KzwuHwFYOSJP/EABoBAQACAwEAAAAAAAAAAAAAAAADBAECBQb/xAAzEQACAQIEAwYGAgEFAAAAAAAAAQIDEQQSITFBUWEFE3GhsfAygZHB0eEUUiIVI2Jy8f/aAAwDAQACEQMRAD8A7jERAEREAREQBERAEREAREQBERAEREAREQBERAEREAREQBERAEREAREQBERAEREAREQBERAEREARMNtwGfAZOTgAd5Mqr9u1g4BZvwJ7PozYB9DMNpbmVFvYu4lZTtQHdzld44XfACse4OCVz4ZzJ6WA+BmTBkiIgCIkbV6yusZscKOzJ4nyHM+kGUm3ZEmJr1vSygH2VdvHCgfMzLp+k2nY4JZPxrw+K5muZcyw8HiEr5H76bl5ExVWKwDKQynkVIIPrMs2KwiIgCIiAIiIAiIgCIiAIiIAiIgCIiAJC2hrFr3Bze1+rQDmTjJ+Q/KTZrW2gx1ukcYNdCWFuIzvtgAY7+AMw5RiryZmKbehh1+oe20U1DJJOAfdbcOHuf8AcU8B4+JEmVbB06jN7Gx+0u5VfStTjHnk+MhVYRndMhnRKyc/YrBCqO4cST3kz6bJy6uJpKblbM+b4eC++ly4oStZOy6H3X7NoCP+zsUYjBrY2NRcPuOjZ3fxrgg4PHGDI2PqbEqVbzvWISAyktvIPdLE49rHAyNvz5vSP/UZLZIz3Ke5sC7RrPaR5j+kz13o3JgfXj8JrIaRtq7RXT0X3vxWmp7SPvbqk7o8TjHrN4dot7o0lh0Ol3S402fs+mwbuAsbgRUzDeVADwL7vtHPurgkHeUHVbtS2csxdz7zOSx+JlLsUs/V22cbOpOotJ+1de7Fj6BRjuDAdktdFpWtL8QoQb7s7bqqDnn8D8Jcq1VFOUnZHoMFhoYeld78X9vDhpuzybCe0z0lpHaZ61WlKBTvK6OMq9bbyMB3GZbNm3Ku+yELjJ7SB3kcxI1WptJ5lrtruXM8LJ3Wu3vmT9j7aspbKngfeU+439D4zoWz9al1YdOR4EHmrdqmckBmydEdplLQCfYsIRvP7LfHh6mWIStoc3tHBKpDPFf5Lz98Ounh0KIiTHmhERAEREAREQBERAEREAREQBETWukO2ACaUP8AiEf5P6/DvkVarGlHNI3p03OVkS9obW5rWfAsP9v9ZUGyV63zKtk8/Xxcqj1OjCioKyJW9G9MAeZAZSlNm9jLmfMz5BM0zix93prP0l242XqhnG91KH8LX1hh8Mj1mwO81npzX12z9XUOJNRdQOZashwB6qJLQnapFvmvUODcXZcGUexXzW3hp9N/oV5+e9LbZV6/XUuwQXoNxmOF6xSQEY9mcjHkZqXRbWg6hkJ9nUaVLa/nvD0ZnH8E2TTsof6xSUwQQpAYHhgjPPt4eM79aOen13Vt7rXjo/uegspQaX70em+nD6Mt2TqdKuSjdVrksYVtv7o4uy8O3BzjxkpdNYdYty+1S6nLhso9TpwHjx3ZVazWV9WtVIYIGNh3yu8zYxx3f+8pn2e+mrNdnWOSgLCrdIHXbpBOfd+00506M1CUrO8sytlvo3dbfC/H7FadOeST4vMvhvv4bO66ozbO2aXt3iN6n6wZ3gOKtujhnPMGYEpsrcB1KlhwzwziYdBqglwd87pZiwXkCwPHHbxn2q5mYbzM2M433Z8D1l6n3yrSzO6059drtq/PnoTWqZ229LL1fW1+be+h1bQW71VTnm9asfMgE/nJMgbGGNPR/gofiMyfOmtjx1RKM5Jc2IiJk0EREAREQBERAEREAREQCr6Q7SGnoZx77ewg/ePb6DJ9JzjryTknJJyc8ye+W3TfaHWajqwfZpG7/EcFj+Q9JQKZ53tCu6lVxWy0/PvodjCUVGnd7vX8FhXdJVdsrEMlVNObIsNFnW0lViQKDLCkyIhkjLieHEyTy8GhBvaUuvc8Zd3rKjWVzaJbw8kmcq1FT6e3q6+D6d21Oi/vKH42afzHE/8A33ibro9YmoqW6virj2x2q3aDI3SDYouXGSrod6t196t+/wAR3iaho9TqNHccAJY7e3Wx/wDz6kfeqf7LeHj/AAz0OGxKqRSe/v3434F+n/tvT4X4eFvltbjG1ryVnvgM9gyBpNsUWAFs0seBFowM9wPKT1UdjJj8UtFw9Ayw2TpWd0RfesYIvgOZbyABPkJC0lfWMFrBucndC14xvdgZjwHqROg7B2OukR9RqWXrRWSxGTXTUOJVTzPIZPbgcO/eMblHG4uNCH/J7Ljfg7cvXZGyVoFAUcAoAHgBwEyTm6dKdp62xv8Ax1G7p1PB7Ag3gO9nOOPcuSMjzl30V6R3Wu+n1adXqazywAWON7HDhyyQRwIHxljVjJ6Hn6vZtanBybjdayimnKK5tLz5G2xESQoCIiAIiIAiIgCIldt7U9VpdVaOdenssHmqEj5wEr6I+6Da2nv3uptSzdwW3GBwDnB8uB48uEm2OFBY8lBJ8hOZ/Q7R7euc8h1VS/zkj5J8Zv8At993S6k/3Lj4qR+sjjUbhmfXyLmMw0aOJdGLulZX8Ur+pyu+02O7nm7Fj5scn85krrmOlJORAJ5GUjrPTQxpXMqz4zTyDNDBPoaWFLSqpMn1NNGRSRPDT4xmJWnrMwRmOwSt1lUs2ke5MzJJB2ZrtqSNfoK7FK2IrqeYdQwPoZdXaeY1ok0ZWLqraWKTQ9Fq1Oabb6BjBSuxbEI/DarcPCbHs/o9UvtO3Wn9+jRr866lPzmTTVy2qHCWYYip/Z/X2yrVqy2T9/b5Eez2N0rw3CGXHAAg5EmfSM5bZlpQ+y/V5I+4xH67si6hZd7JVL9IarBvL7VLg9qniPkRx8JdwEm5Tpviv16PyK2dUp061r5ZJv6/rTqOhtSJoNKK8YFIyRjG8B7XwOR6TV9n3fte2ntp400AIzjk5VCCR97iyjPcQe2er/o6t9qurW2Lp2bLIysfZ7jusA3ym1dHtgVaOoVVZ73Zsbzn04Ac+H68Z1YqcmrqyXgZnVw1FVJ06meU01bK1lUtXe+78L8X4XMREnOQIiIAiIgCIiAJxnpj0O1Wm6/Urqy1Vl28wZ7Q533zgpxVsZ48RyPDsnZpov0tE/sSdii8FzyGOrsUAnzb5SOollbL/ZtSccRGEXpJpPw98jSOh42vVUbdIGai1zgdXUwZ8hSSAeGO/A5c51fbHWHZ9vWAC39nBsC8VD4BYDwzmR+gml6rZ2jTBGauswRgg2sbMEdnvS42jT1lNqdr1Oo8ypE0VN921zX2Nsbi1Vr3UY2Unqt2r8Xd32OVUTMXkatuE9F55PfU6TWplLT6pmDenusxYwTqZNqMg0SbWZo0RyJSmegZiUz1makZkJmJ59zPLGZCRhdZ5CT0xnwGZNzNSsmrykKtpJV5NFkcxfJvRi7dtes/bTI80PH4hv5ZBcz5Vd1dtFnYtyhvwv8AVknwAfPpLWFnkrRl1t9dCOcc0HE3eIkBtaVsKuMD7J7x35npjlpN7E+JB2bYzgsTwYkgdwzwHwk6EGrOwiIgwIiIAiIgCIiAIiIBybbGn6rUXpyC2Nj8JOV+REhZmydO9Nu6gOOVlYJ8WXKn5BZrJnlcRTyVZR6/v7nfoyz04y6HsGZazI4MzVmQEpYUmTK2lbU0lo80ImiWGn3fkbrI6yYNMpILzyXkc2TybIM5TMzzyHmA2T4GMGyRNSyZ1eQa1buPwktKn+6ZsjWSM29PGur3qrV762A88HHzn0Uv90zKFPaD8JNG5He2qNp2LrOv09FvbZUrN4Nj2h8cz7tfHVkEZJYBc9jHtHpma/8ARzqc0XUH3tPcQB2hH4j+YPNqsrVsbwzg5Gew989PSn3lJS5o5lSHd1WuTK3TGyoqpG8jciOzwPcZbREmIm7iIiDAiIgCIiAJUbX2oKm3OW7Ub7DnBCAhVXwySePcp8xbzVek6BTZZgkutVfhgMxVfVsj+JZrJ2i2uRtBJySZj/8AH625esIRN72kSx7EOP3goO6fie/jI2n2tqNK+L1bqg264Z+sIGM76Hnyy2OIIDciCBuVNyuqupyrAMpHaDKTpKRlAQCGrtNmexEXIbz3iAPxmRujFLNFu/O78+HlpwsSxqtvLJacvx78SJ06pDVU2DjuuUyOQV1zn4qo9Zodi4m+9S1mx0GMsNGlid7GsB6x67q/GaLaQQCOIIBHiDxE5HaULTU+a9P1Y6GCf+DjyZhmRDMRn0Gc0uk2t5lV5FqUnkMybTpPvHHgOJmjNHY+dZPaIzcgZNooQch6njJPXIvMiaOSNHLkiHXoHPM4+ckJs5e0k/KY7ttVry4+UhWbaZvdExqzFpstRRWvYJ9F6DsEqKzY/Mybp9EPtGY1MOPNk5NYvhJCarw+UxU11LzIkpNTSO0TZXfEhlbggLj3fKGc93ymZdfT94T2NZUe0SRf9iPXkQRqWQ5UkHvHDPge+WWg26CQtuBngG5D17vOY2atu6QNVpV7JPSxNai7xldcuAcYTVmjcYlR0e1Jaso3Fqzj+E+7+RHpLeelo1Y1YKcdn78jnzi4ycWIiJKaiIiAIiIAkDamhW5CpAOQV9rO6ynmpxxAOBxHEEA9knxAOe6XWa/Sb1b02sAx3WrpfVVOPvfVjKt6DPPAmcafWa5gtivTpyR1rWI1Luo/s0Rvbz4kADJIyeE3uJC6KfF25cPzbpe3y0JlWa1sr8+P48jGiAKFAAUDdAA4ADhjHdOOinq2uoPPT3PSM8ygY7h+E7NOXdLtA6bStZR9XfSljHs3sFMDvPsZ/ilTtOGakpcn6ljAStNx5r0/VymKknhJOn0uf3j3DlLLRbKJ4twHdLZNMiDunnXPkdGVRLQqa9M2O4dwn2whZ72jtOtM8eM1zVbTZzw5TEYykZinLUn6raJHIyts1DN2zzptJZYcKpY/ugmNavU8HU73dLdLDTn8Eb++exs5whuz3WBJddmOQmuW7VsPu4UeA4zB17tzYnzMvw7JnL42l5leeLhwVzcqtUO2xV9RLbQaeqwgdaST3Zmi6KskidG6H7M4hiOUtw7Kox31KtTFS4aFgOiqkZ3jIGt6NlOIyfIjP5TeQJjvrBBz3SX+FQt8KK6xVVcTlWtpZAxUZx2E4lLszb4twN1kY+II+P8AxNq2m43rB3Z9RNA2fTugE905uMw1OlZJHXwsu9i2+htun2g3Y0tNLtMngZpOmvO/wmwaYkkY5+E5VSCibygjfei5y1p7MKPXjNhlZsLRGmpQ3vtxbwJ5L6D9ZZz02BpOlQjCW+7+bbOFXkpVG1sIiJbIhERAEREAREQBERAIm0dYtNb2NyUcB2sx4BR5nE0mkNbY1tpy7HPgo7FHgJb9N7iBp07GZmP8IAH+YzWtVtQVrw54nn+1KzlU7tbL1av6WOlhKdoZuL9C21WtSteJmq7U2+zkhOUq9br3tJyeEp9rbTFCgAb1jDKg8gPvN4eHbKlOg5PqX4U1EsmOTlzz+c2nox0aN/tsN2odp5t5CaH0eYuDZYSzZ9onw7AOweE7X0U2nXbQgXAKKAR+s6+FwcW7y1t9CtjK8oK0f/Cz0Oz6ql3a1AHzM036QNlLu9YOfbN11epVFJY4xOa9LtvdaSoPszrRXI5Su3c0axOMy1JDc5kqElsSXLvYOn3nUeM7BsrSiutQO6cg2RbusD4zquwNcLEA7QJpPYjkXEh7T1IrrY+HCSnYAZPKaZ0l2sHO6vITRK5qkaxtjUYW1u9SPUnH6zUmYtwEvNqsXwg5Zy36D/vhJ2wei91+Ci4TtsfIX0+96TjY+feV8sFdpW09+2drCtU6OaWl9So2bozkcCWJwABkk9wE6Z0X6OdVi24fWc0XmK/E97fl+VhsTo/Tphlfbsxguw4+Sj7I/wC5l1JcLgMsu8q6vguC/Ppx10ZTxOMzrLDb35CIidMoCIiAIiIAiIgCIiAIiIBqvT2g9TXaP7JiG8FfAz8QB6zluu1BYzu2ooWxGRxvI6lWB5EHmJyXpX0Rv0zM9YNun5hlGWrHdYB/m5eXKcnG4Z5+9ivH5aX+nodTA145e7e/A1tG4yPtPQC0g9oGB5T2GknT3jtlC7WsTpxdiFsfStWWRvccc/ut2Hy7JabH2vZp3ypwQcEfpLPRX0faAmLbuz6rPrNOwD49pCcB8dqnsPhLmBx6jPJV0T48L9fEpY2n3lpRRI2v0qe4Y5eAmtXWkmRyxHA8COeeYnzenoDloyCZa5gUzKhgFlpXxNs2BtnqiM8ppdTSbVbDVzDRvG1ulBcbq8BKfZ+jt1Vu5X3bzM2d1F7z+g/5kbYmybtU+7WMKD7bt7if1PgPlznS9jbKr01e5XxJ4ux9527z/SaN2NXZFXsvofpqiGs+us55sA3QfBOXxzNkE+xIIU4wVooxOcpu8ncRETc1EREAREQBERAEREAREQBERAEREApNpdFtFeSbKF3jxLV5qYnvJXGfXMo7/o10p9y25PAmtwP5QfnN3iRSoU5bxX0JY16kdFJnPX+jIfZ1RHnQD/vE9J9GvfqifKjH+8zoESP+HR/r5v8AJJ/Mrf28l+DRG+jPTN791xPenVqfmpmv7W+jLVISdNYlydiv9VaPD7reeR5TrcSxTSprLHYhlUlJ3kzguo6KbRr9/S2/+sC7/TJmOnYmtJwNLqPXTXAfErgTv0STOzGY47oOhO0LOdQqHfdYo+S5b5Ta9k/R/UmDqbDafuoOrr8ic7x+U3eJhyZhyZh0+nStQlahEUYVVACj0EzRE1MCIiAIiIAiIgCIiAIiIAiIgCIiAIiIAiIgCIiAIiIAiIgCIiAIiIAiIgCIiAIiIAiIgCIiAIiIAiIgCIiAIiIAiIgCIiAIiIAiIgCIiAIiIAiIgCIiAIiIAiIgCIiAIiIB/9k=&quot;&gt;" style="text;html=1;strokeColor=none;fillColor=none;align=center;verticalAlign=middle;whiteSpace=wrap;rounded=0;fontSize=20;fontFamily=Helvetica;fontColor=#000000;" vertex="1" parent="1">
          <mxGeometry x="-460" y="1369.1999999999998" width="230" height="227.94" as="geometry" />
        </mxCell>
        <mxCell id="lfMM5lCk48rUv3l5oZ-4-77" value="&lt;font style=&quot;font-size: 20px;&quot;&gt;Such as&lt;/font&gt;" style="text;html=1;strokeColor=none;fillColor=none;align=center;verticalAlign=middle;whiteSpace=wrap;rounded=0;fontSize=11;fontFamily=Helvetica;fontColor=default;" vertex="1" parent="1">
          <mxGeometry x="990" y="245.59" width="110" height="28.97" as="geometry" />
        </mxCell>
        <mxCell id="lfMM5lCk48rUv3l5oZ-4-814" style="edgeStyle=orthogonalEdgeStyle;shape=connector;rounded=0;orthogonalLoop=1;jettySize=auto;html=1;exitX=1;exitY=0.5;exitDx=0;exitDy=0;entryX=1;entryY=0.5;entryDx=0;entryDy=0;labelBackgroundColor=default;strokeColor=default;strokeWidth=2;align=center;verticalAlign=middle;fontFamily=Helvetica;fontSize=11;fontColor=default;endArrow=classic;" edge="1" parent="1" source="lfMM5lCk48rUv3l5oZ-4-280" target="lfMM5lCk48rUv3l5oZ-4-813">
          <mxGeometry relative="1" as="geometry" />
        </mxCell>
        <mxCell id="lfMM5lCk48rUv3l5oZ-4-280" value="&lt;font style=&quot;font-size: 25px;&quot;&gt;Custom calldata for the upgrade&lt;/font&gt;" style="text;html=1;strokeColor=#9673a6;fillColor=#e1d5e7;align=center;verticalAlign=middle;whiteSpace=wrap;rounded=0;fontSize=11;fontFamily=Helvetica;dashed=1;strokeWidth=3;" vertex="1" parent="1">
          <mxGeometry x="1068" y="493.95" width="384" height="61.4" as="geometry" />
        </mxCell>
        <mxCell id="lfMM5lCk48rUv3l5oZ-4-282" value="" style="shape=waypoint;sketch=0;fillStyle=solid;size=6;pointerEvents=1;points=[];fillColor=none;resizable=0;rotatable=0;perimeter=centerPerimeter;snapToPoint=1;rounded=0;dashed=1;strokeColor=#1E69FF;strokeWidth=5;align=center;verticalAlign=middle;fontFamily=Helvetica;fontSize=11;fontColor=default;html=1;" vertex="1" parent="1">
          <mxGeometry x="-800.01" y="737.32" width="20" height="20" as="geometry" />
        </mxCell>
        <mxCell id="lfMM5lCk48rUv3l5oZ-4-496" style="edgeStyle=orthogonalEdgeStyle;shape=connector;rounded=0;orthogonalLoop=1;jettySize=auto;html=1;exitX=1;exitY=0.5;exitDx=0;exitDy=0;labelBackgroundColor=default;strokeColor=default;strokeWidth=2;align=center;verticalAlign=middle;fontFamily=Helvetica;fontSize=11;fontColor=default;endArrow=classic;" edge="1" parent="1" source="lfMM5lCk48rUv3l5oZ-4-287">
          <mxGeometry relative="1" as="geometry">
            <mxPoint x="500" y="282.7692307692307" as="targetPoint" />
          </mxGeometry>
        </mxCell>
        <mxCell id="lfMM5lCk48rUv3l5oZ-4-287" value="&lt;font style=&quot;font-size: 25px;&quot;&gt;The &lt;font color=&quot;#1e69ff&quot;&gt;purpose&lt;/font&gt; of this contract is to &lt;font color=&quot;#1e69ff&quot;&gt;provide a default implementation for zkSync protocol upgrades&lt;/font&gt;&lt;/font&gt;" style="text;html=1;strokeColor=none;fillColor=none;align=center;verticalAlign=middle;whiteSpace=wrap;rounded=0;fontSize=11;fontFamily=Helvetica;fontColor=default;" vertex="1" parent="1">
          <mxGeometry x="-270" y="245.59" width="570" height="72.94" as="geometry" />
        </mxCell>
        <mxCell id="lfMM5lCk48rUv3l5oZ-4-652" value="" style="shape=curlyBracket;whiteSpace=wrap;html=1;rounded=1;labelPosition=left;verticalLabelPosition=middle;align=right;verticalAlign=middle;sketch=0;fillStyle=solid;pointerEvents=1;strokeColor=#000000;strokeWidth=3;fontFamily=Helvetica;fontSize=11;fontColor=default;fillColor=none;" vertex="1" parent="1">
          <mxGeometry x="1160" y="120.05000000000001" width="20" height="324.01" as="geometry" />
        </mxCell>
        <mxCell id="lfMM5lCk48rUv3l5oZ-4-806" value="" style="edgeStyle=orthogonalEdgeStyle;shape=connector;rounded=0;orthogonalLoop=1;jettySize=auto;html=1;labelBackgroundColor=default;strokeColor=default;strokeWidth=2;align=center;verticalAlign=middle;fontFamily=Helvetica;fontSize=11;fontColor=default;endArrow=classic;" edge="1" parent="1" source="lfMM5lCk48rUv3l5oZ-4-662" target="lfMM5lCk48rUv3l5oZ-4-805">
          <mxGeometry relative="1" as="geometry" />
        </mxCell>
        <mxCell id="lfMM5lCk48rUv3l5oZ-4-662" value="&lt;font style=&quot;font-size: 25px;&quot;&gt;_upgradeL1Contract&lt;/font&gt;" style="text;html=1;strokeColor=#A9C4EB;fillColor=#2c2e40;align=center;verticalAlign=middle;whiteSpace=wrap;rounded=1;gradientColor=#565872;strokeWidth=3;perimeterSpacing=2;shadow=0;dashed=0;fontColor=#FFFFFF;" vertex="1" parent="1">
          <mxGeometry x="-270" y="489.29" width="260" height="70.71" as="geometry" />
        </mxCell>
        <mxCell id="lfMM5lCk48rUv3l5oZ-4-690" value="" style="shape=waypoint;sketch=0;fillStyle=solid;size=6;pointerEvents=1;points=[];fillColor=none;resizable=0;rotatable=0;perimeter=centerPerimeter;snapToPoint=1;rounded=0;dashed=1;strokeColor=#1E69FF;strokeWidth=5;align=center;verticalAlign=middle;fontFamily=Helvetica;fontSize=11;fontColor=default;html=1;" vertex="1" parent="1">
          <mxGeometry x="1190" y="142.88" width="20" height="20" as="geometry" />
        </mxCell>
        <mxCell id="lfMM5lCk48rUv3l5oZ-4-792" style="edgeStyle=orthogonalEdgeStyle;shape=connector;rounded=0;orthogonalLoop=1;jettySize=auto;html=1;exitX=1;exitY=0.5;exitDx=0;exitDy=0;labelBackgroundColor=default;strokeColor=default;strokeWidth=2;align=center;verticalAlign=middle;fontFamily=Helvetica;fontSize=11;fontColor=default;endArrow=classic;" edge="1" parent="1" source="lfMM5lCk48rUv3l5oZ-4-691">
          <mxGeometry relative="1" as="geometry">
            <mxPoint x="1149.9999999999995" y="282.7692307692307" as="targetPoint" />
          </mxGeometry>
        </mxCell>
        <mxCell id="lfMM5lCk48rUv3l5oZ-4-691" value="&lt;font style=&quot;font-size: 25px;&quot;&gt;Defines various components of &lt;b&gt;&lt;font color=&quot;#1e69ff&quot;&gt;zkSync&lt;/font&gt;&lt;/b&gt;&lt;/font&gt;" style="text;html=1;strokeColor=none;fillColor=none;align=center;verticalAlign=middle;whiteSpace=wrap;rounded=0;fontSize=11;fontFamily=Helvetica;fontColor=default;" vertex="1" parent="1">
          <mxGeometry x="511.5" y="262.06" width="438.5" height="40" as="geometry" />
        </mxCell>
        <mxCell id="lfMM5lCk48rUv3l5oZ-4-793" value="&lt;font style=&quot;font-size: 25px;&quot;&gt;Protocol version&lt;/font&gt;" style="text;html=1;strokeColor=none;fillColor=none;align=center;verticalAlign=middle;whiteSpace=wrap;rounded=0;fontSize=11;fontFamily=Helvetica;fontColor=default;" vertex="1" parent="1">
          <mxGeometry x="1210" y="132.88" width="194.5" height="40" as="geometry" />
        </mxCell>
        <mxCell id="lfMM5lCk48rUv3l5oZ-4-794" value="" style="shape=waypoint;sketch=0;fillStyle=solid;size=6;pointerEvents=1;points=[];fillColor=none;resizable=0;rotatable=0;perimeter=centerPerimeter;snapToPoint=1;rounded=0;dashed=1;strokeColor=#1E69FF;strokeWidth=5;align=center;verticalAlign=middle;fontFamily=Helvetica;fontSize=11;fontColor=default;html=1;" vertex="1" parent="1">
          <mxGeometry x="1190" y="210" width="20" height="20" as="geometry" />
        </mxCell>
        <mxCell id="lfMM5lCk48rUv3l5oZ-4-795" value="&lt;font style=&quot;font-size: 25px;&quot;&gt;Bootloader bytecode&lt;/font&gt;" style="text;html=1;strokeColor=none;fillColor=none;align=center;verticalAlign=middle;whiteSpace=wrap;rounded=0;fontSize=11;fontFamily=Helvetica;fontColor=default;" vertex="1" parent="1">
          <mxGeometry x="1210" y="200" width="250" height="40" as="geometry" />
        </mxCell>
        <mxCell id="lfMM5lCk48rUv3l5oZ-4-796" value="" style="shape=waypoint;sketch=0;fillStyle=solid;size=6;pointerEvents=1;points=[];fillColor=none;resizable=0;rotatable=0;perimeter=centerPerimeter;snapToPoint=1;rounded=0;dashed=1;strokeColor=#1E69FF;strokeWidth=5;align=center;verticalAlign=middle;fontFamily=Helvetica;fontSize=11;fontColor=default;html=1;" vertex="1" parent="1">
          <mxGeometry x="1190" y="272.06" width="20" height="20" as="geometry" />
        </mxCell>
        <mxCell id="lfMM5lCk48rUv3l5oZ-4-797" value="&lt;font style=&quot;font-size: 25px;&quot;&gt;Default account bytecode&lt;/font&gt;" style="text;html=1;strokeColor=none;fillColor=none;align=center;verticalAlign=middle;whiteSpace=wrap;rounded=0;fontSize=11;fontFamily=Helvetica;fontColor=default;" vertex="1" parent="1">
          <mxGeometry x="1210" y="262.06" width="300" height="40" as="geometry" />
        </mxCell>
        <mxCell id="lfMM5lCk48rUv3l5oZ-4-798" value="" style="shape=waypoint;sketch=0;fillStyle=solid;size=6;pointerEvents=1;points=[];fillColor=none;resizable=0;rotatable=0;perimeter=centerPerimeter;snapToPoint=1;rounded=0;dashed=1;strokeColor=#1E69FF;strokeWidth=5;align=center;verticalAlign=middle;fontFamily=Helvetica;fontSize=11;fontColor=default;html=1;" vertex="1" parent="1">
          <mxGeometry x="1190" y="330" width="20" height="20" as="geometry" />
        </mxCell>
        <mxCell id="lfMM5lCk48rUv3l5oZ-4-799" value="&lt;font style=&quot;font-size: 25px;&quot;&gt;Verifier&lt;/font&gt;" style="text;html=1;strokeColor=none;fillColor=none;align=center;verticalAlign=middle;whiteSpace=wrap;rounded=0;fontSize=11;fontFamily=Helvetica;fontColor=default;" vertex="1" parent="1">
          <mxGeometry x="1210" y="320" width="100" height="40" as="geometry" />
        </mxCell>
        <mxCell id="lfMM5lCk48rUv3l5oZ-4-800" value="" style="shape=waypoint;sketch=0;fillStyle=solid;size=6;pointerEvents=1;points=[];fillColor=none;resizable=0;rotatable=0;perimeter=centerPerimeter;snapToPoint=1;rounded=0;dashed=1;strokeColor=#1E69FF;strokeWidth=5;align=center;verticalAlign=middle;fontFamily=Helvetica;fontSize=11;fontColor=default;html=1;" vertex="1" parent="1">
          <mxGeometry x="1190" y="390" width="20" height="20" as="geometry" />
        </mxCell>
        <mxCell id="lfMM5lCk48rUv3l5oZ-4-801" value="&lt;font style=&quot;font-size: 25px;&quot;&gt;And more, can be upgraded&lt;/font&gt;" style="text;html=1;strokeColor=none;fillColor=none;align=center;verticalAlign=middle;whiteSpace=wrap;rounded=0;fontSize=11;fontFamily=Helvetica;fontColor=default;" vertex="1" parent="1">
          <mxGeometry x="1210" y="380" width="330" height="40" as="geometry" />
        </mxCell>
        <mxCell id="lfMM5lCk48rUv3l5oZ-4-803" style="edgeStyle=orthogonalEdgeStyle;shape=connector;rounded=0;orthogonalLoop=1;jettySize=auto;html=1;exitX=1;exitY=0.5;exitDx=0;exitDy=0;labelBackgroundColor=default;strokeColor=default;strokeWidth=2;align=center;verticalAlign=middle;fontFamily=Helvetica;fontSize=11;fontColor=default;endArrow=classic;" edge="1" parent="1" source="lfMM5lCk48rUv3l5oZ-4-802">
          <mxGeometry relative="1" as="geometry">
            <mxPoint x="-279.9999999999998" y="524.3076923076924" as="targetPoint" />
          </mxGeometry>
        </mxCell>
        <mxCell id="lfMM5lCk48rUv3l5oZ-4-802" value="&lt;font color=&quot;#ccffff&quot; style=&quot;font-size: 30px;&quot;&gt;Functions&lt;/font&gt;" style="text;html=1;strokeColor=#A9C4EB;fillColor=#2c2e40;align=center;verticalAlign=middle;whiteSpace=wrap;rounded=1;gradientColor=#565872;strokeWidth=3;perimeterSpacing=2;shadow=0;dashed=0;fontColor=#FFFFFF;" vertex="1" parent="1">
          <mxGeometry x="-800.01" y="490" width="310" height="70" as="geometry" />
        </mxCell>
        <mxCell id="lfMM5lCk48rUv3l5oZ-4-805" value="" style="shape=singleArrow;whiteSpace=wrap;html=1;arrowWidth=0.4;arrowSize=0.4;fillColor=#2c2e40;strokeColor=#A9C4EB;fontColor=#FFFFFF;gradientColor=#565872;rounded=1;strokeWidth=3;shadow=0;dashed=0;" vertex="1" parent="1">
          <mxGeometry x="215" y="495.005" width="80" height="60" as="geometry" />
        </mxCell>
        <mxCell id="lfMM5lCk48rUv3l5oZ-4-807" value="&lt;font style=&quot;font-size: 25px;&quot;&gt;_upgradeL1Contract&lt;/font&gt;" style="text;html=1;strokeColor=#A9C4EB;fillColor=#2c2e40;align=center;verticalAlign=middle;whiteSpace=wrap;rounded=1;gradientColor=#565872;strokeWidth=3;perimeterSpacing=2;shadow=0;dashed=0;fontColor=#FFFFFF;" vertex="1" parent="1">
          <mxGeometry x="-260" y="499.29" width="260" height="70.71" as="geometry" />
        </mxCell>
        <mxCell id="lfMM5lCk48rUv3l5oZ-4-808" value="&lt;font style=&quot;font-size: 25px;&quot;&gt;_upgradeL1Contract&lt;/font&gt;" style="text;html=1;strokeColor=#A9C4EB;fillColor=#2c2e40;align=center;verticalAlign=middle;whiteSpace=wrap;rounded=1;gradientColor=#565872;strokeWidth=3;perimeterSpacing=2;shadow=0;dashed=0;fontColor=#FFFFFF;" vertex="1" parent="1">
          <mxGeometry x="-250" y="509.29" width="260" height="70.71" as="geometry" />
        </mxCell>
        <mxCell id="lfMM5lCk48rUv3l5oZ-4-809" value="&lt;font style=&quot;font-size: 20px;&quot;&gt;Internal function&lt;/font&gt;" style="text;html=1;strokeColor=none;fillColor=none;align=center;verticalAlign=middle;whiteSpace=wrap;rounded=0;fontSize=11;fontFamily=Helvetica;fontColor=default;" vertex="1" parent="1">
          <mxGeometry x="40" y="480" width="150" height="38.97" as="geometry" />
        </mxCell>
        <mxCell id="lfMM5lCk48rUv3l5oZ-4-811" style="edgeStyle=orthogonalEdgeStyle;shape=connector;rounded=0;orthogonalLoop=1;jettySize=auto;html=1;exitX=1;exitY=0.5;exitDx=0;exitDy=0;labelBackgroundColor=default;strokeColor=default;strokeWidth=2;align=center;verticalAlign=middle;fontFamily=Helvetica;fontSize=11;fontColor=default;endArrow=classic;" edge="1" parent="1" source="lfMM5lCk48rUv3l5oZ-4-810">
          <mxGeometry relative="1" as="geometry">
            <mxPoint x="1060" y="524.3076923076924" as="targetPoint" />
          </mxGeometry>
        </mxCell>
        <mxCell id="lfMM5lCk48rUv3l5oZ-4-810" value="&lt;font style=&quot;font-size: 25px;&quot;&gt;Is a &lt;font color=&quot;#1e69ff&quot;&gt;placeholder for custom logic&lt;/font&gt; that may be required for &lt;font color=&quot;#1e69ff&quot;&gt;upgrading &lt;b&gt;L1&lt;/b&gt; contracts&lt;/font&gt;&lt;/font&gt;" style="text;html=1;strokeColor=none;fillColor=none;align=center;verticalAlign=middle;whiteSpace=wrap;rounded=0;fontSize=11;fontFamily=Helvetica;fontColor=default;" vertex="1" parent="1">
          <mxGeometry x="295" y="492.51" width="510" height="64.99" as="geometry" />
        </mxCell>
        <mxCell id="lfMM5lCk48rUv3l5oZ-4-812" value="&lt;font style=&quot;font-size: 20px;&quot;&gt;Accepts&lt;/font&gt;" style="text;html=1;strokeColor=none;fillColor=none;align=center;verticalAlign=middle;whiteSpace=wrap;rounded=0;fontSize=11;fontFamily=Helvetica;fontColor=default;" vertex="1" parent="1">
          <mxGeometry x="870" y="485" width="110" height="28.97" as="geometry" />
        </mxCell>
        <mxCell id="lfMM5lCk48rUv3l5oZ-4-815" style="edgeStyle=orthogonalEdgeStyle;shape=connector;rounded=0;orthogonalLoop=1;jettySize=auto;html=1;exitX=0;exitY=0.5;exitDx=0;exitDy=0;labelBackgroundColor=default;strokeColor=default;strokeWidth=2;align=center;verticalAlign=middle;fontFamily=Helvetica;fontSize=11;fontColor=default;endArrow=classic;" edge="1" parent="1" source="lfMM5lCk48rUv3l5oZ-4-813">
          <mxGeometry relative="1" as="geometry">
            <mxPoint x="710" y="630.4615384615383" as="targetPoint" />
          </mxGeometry>
        </mxCell>
        <mxCell id="lfMM5lCk48rUv3l5oZ-4-813" value="&lt;font style=&quot;font-size: 25px;&quot;&gt;Which can be interpreted differently for each upgrade&lt;/font&gt;" style="text;html=1;strokeColor=none;fillColor=none;align=center;verticalAlign=middle;whiteSpace=wrap;rounded=0;fontSize=11;fontFamily=Helvetica;fontColor=default;" vertex="1" parent="1">
          <mxGeometry x="920" y="600" width="460" height="60" as="geometry" />
        </mxCell>
        <mxCell id="lfMM5lCk48rUv3l5oZ-4-816" value="&lt;font style=&quot;font-size: 20px;&quot;&gt; By default&lt;/font&gt;" style="text;html=1;strokeColor=none;fillColor=none;align=center;verticalAlign=middle;whiteSpace=wrap;rounded=0;fontSize=11;fontFamily=Helvetica;fontColor=default;" vertex="1" parent="1">
          <mxGeometry x="766" y="600" width="110" height="28.97" as="geometry" />
        </mxCell>
        <mxCell id="lfMM5lCk48rUv3l5oZ-4-819" style="edgeStyle=orthogonalEdgeStyle;shape=connector;rounded=0;orthogonalLoop=1;jettySize=auto;html=1;exitX=0;exitY=0.5;exitDx=0;exitDy=0;labelBackgroundColor=default;strokeColor=default;strokeWidth=2;align=center;verticalAlign=middle;fontFamily=Helvetica;fontSize=11;fontColor=default;endArrow=classic;" edge="1" parent="1" source="lfMM5lCk48rUv3l5oZ-4-817">
          <mxGeometry relative="1" as="geometry">
            <mxPoint x="140" y="630.4615384615383" as="targetPoint" />
          </mxGeometry>
        </mxCell>
        <mxCell id="lfMM5lCk48rUv3l5oZ-4-817" value="&lt;font color=&quot;#1e69ff&quot; style=&quot;font-size: 25px;&quot;&gt;&lt;b&gt;This function does nothing&lt;/b&gt;&lt;/font&gt;" style="text;html=1;strokeColor=none;fillColor=none;align=center;verticalAlign=middle;whiteSpace=wrap;rounded=0;fontSize=11;fontFamily=Helvetica;fontColor=default;" vertex="1" parent="1">
          <mxGeometry x="360" y="597.51" width="340" height="64.99" as="geometry" />
        </mxCell>
        <mxCell id="lfMM5lCk48rUv3l5oZ-4-818" value="&lt;font style=&quot;font-size: 25px;&quot;&gt;Concrete implementations of &lt;b&gt;zkSync&lt;/b&gt; &lt;b&gt;upgrades&lt;/b&gt; should &lt;b&gt;override it&lt;/b&gt; to include any specific upgrade logic for &lt;b&gt;L1 contracts&lt;/b&gt;&lt;/font&gt;" style="text;html=1;strokeColor=#9673a6;fillColor=#e1d5e7;align=center;verticalAlign=middle;whiteSpace=wrap;rounded=0;fontSize=11;fontFamily=Helvetica;dashed=1;strokeWidth=3;" vertex="1" parent="1">
          <mxGeometry x="-800" y="599.3" width="926" height="61.4" as="geometry" />
        </mxCell>
        <mxCell id="lfMM5lCk48rUv3l5oZ-4-822" value="" style="edgeStyle=orthogonalEdgeStyle;shape=connector;rounded=0;orthogonalLoop=1;jettySize=auto;html=1;labelBackgroundColor=default;strokeColor=default;strokeWidth=2;align=center;verticalAlign=middle;fontFamily=Helvetica;fontSize=11;fontColor=default;endArrow=classic;" edge="1" parent="1" source="lfMM5lCk48rUv3l5oZ-4-820" target="lfMM5lCk48rUv3l5oZ-4-821">
          <mxGeometry relative="1" as="geometry" />
        </mxCell>
        <mxCell id="lfMM5lCk48rUv3l5oZ-4-820" value="&lt;font style=&quot;font-size: 24px;&quot;&gt;_postUpgrade&lt;/font&gt;" style="text;html=1;strokeColor=#A9C4EB;fillColor=#2c2e40;align=center;verticalAlign=middle;whiteSpace=wrap;rounded=1;gradientColor=#565872;strokeWidth=3;perimeterSpacing=2;shadow=0;dashed=0;fontColor=#FFFFFF;" vertex="1" parent="1">
          <mxGeometry x="-772.63" y="714.64" width="202.63" height="65.36" as="geometry" />
        </mxCell>
        <mxCell id="lfMM5lCk48rUv3l5oZ-4-821" value="" style="shape=singleArrow;whiteSpace=wrap;html=1;arrowWidth=0.4;arrowSize=0.4;fillColor=#2c2e40;strokeColor=#A9C4EB;fontColor=#FFFFFF;gradientColor=#565872;rounded=1;strokeWidth=3;shadow=0;dashed=0;" vertex="1" parent="1">
          <mxGeometry x="-349.995" y="717.3199999999999" width="80" height="60" as="geometry" />
        </mxCell>
        <mxCell id="lfMM5lCk48rUv3l5oZ-4-825" value="&lt;font style=&quot;font-size: 20px;&quot;&gt;Internal function&lt;/font&gt;" style="text;html=1;strokeColor=none;fillColor=none;align=center;verticalAlign=middle;whiteSpace=wrap;rounded=0;fontSize=11;fontFamily=Helvetica;fontColor=default;" vertex="1" parent="1">
          <mxGeometry x="-540" y="710" width="150" height="38.97" as="geometry" />
        </mxCell>
        <mxCell id="lfMM5lCk48rUv3l5oZ-4-827" style="edgeStyle=orthogonalEdgeStyle;shape=connector;rounded=0;orthogonalLoop=1;jettySize=auto;html=1;exitX=1;exitY=0.5;exitDx=0;exitDy=0;labelBackgroundColor=default;strokeColor=default;strokeWidth=2;align=center;verticalAlign=middle;fontFamily=Helvetica;fontSize=11;fontColor=default;endArrow=classic;" edge="1" parent="1" source="lfMM5lCk48rUv3l5oZ-4-826">
          <mxGeometry relative="1" as="geometry">
            <mxPoint x="370" y="747.3846153846152" as="targetPoint" />
          </mxGeometry>
        </mxCell>
        <mxCell id="lfMM5lCk48rUv3l5oZ-4-826" value="&lt;font style=&quot;font-size: 25px;&quot;&gt;Serves as a &lt;font color=&quot;#1e69ff&quot;&gt;placeholder for custom logic&lt;/font&gt; for &lt;font color=&quot;#1e69ff&quot;&gt;post-upgrade&lt;/font&gt; actions&lt;/font&gt;" style="text;html=1;strokeColor=none;fillColor=none;align=center;verticalAlign=middle;whiteSpace=wrap;rounded=0;fontSize=11;fontFamily=Helvetica;fontColor=default;" vertex="1" parent="1">
          <mxGeometry x="-270" y="710.85" width="410" height="72.94" as="geometry" />
        </mxCell>
        <mxCell id="lfMM5lCk48rUv3l5oZ-4-828" value="&lt;font style=&quot;font-size: 20px;&quot;&gt;Like&lt;/font&gt;" style="text;html=1;strokeColor=none;fillColor=none;align=center;verticalAlign=middle;whiteSpace=wrap;rounded=0;fontSize=11;fontFamily=Helvetica;fontColor=default;" vertex="1" parent="1">
          <mxGeometry x="180" y="710" width="150" height="38.97" as="geometry" />
        </mxCell>
        <mxCell id="lfMM5lCk48rUv3l5oZ-4-830" style="edgeStyle=orthogonalEdgeStyle;shape=connector;rounded=0;orthogonalLoop=1;jettySize=auto;html=1;exitX=1;exitY=0.5;exitDx=0;exitDy=0;labelBackgroundColor=default;strokeColor=default;strokeWidth=2;align=center;verticalAlign=middle;fontFamily=Helvetica;fontSize=11;fontColor=default;endArrow=classic;" edge="1" parent="1" source="lfMM5lCk48rUv3l5oZ-4-829">
          <mxGeometry relative="1" as="geometry">
            <mxPoint x="840" y="747.3846153846152" as="targetPoint" />
          </mxGeometry>
        </mxCell>
        <mxCell id="lfMM5lCk48rUv3l5oZ-4-829" value="&lt;font style=&quot;font-size: 25px;&quot;&gt;_upgradeL1Contract&lt;/font&gt;" style="text;html=1;strokeColor=#9673a6;fillColor=#e1d5e7;align=center;verticalAlign=middle;whiteSpace=wrap;rounded=0;fontSize=11;fontFamily=Helvetica;dashed=1;strokeWidth=3;" vertex="1" parent="1">
          <mxGeometry x="380" y="715.92" width="270" height="61.4" as="geometry" />
        </mxCell>
        <mxCell id="lfMM5lCk48rUv3l5oZ-4-831" value="&lt;font style=&quot;font-size: 20px;&quot;&gt;Accepts&lt;/font&gt;" style="text;html=1;strokeColor=none;fillColor=none;align=center;verticalAlign=middle;whiteSpace=wrap;rounded=0;fontSize=11;fontFamily=Helvetica;fontColor=default;" vertex="1" parent="1">
          <mxGeometry x="670" y="710" width="150" height="38.97" as="geometry" />
        </mxCell>
        <mxCell id="lfMM5lCk48rUv3l5oZ-4-835" style="edgeStyle=orthogonalEdgeStyle;shape=connector;rounded=0;orthogonalLoop=1;jettySize=auto;html=1;exitX=1;exitY=0.5;exitDx=0;exitDy=0;entryX=1;entryY=0.5;entryDx=0;entryDy=0;labelBackgroundColor=default;strokeColor=default;strokeWidth=2;align=center;verticalAlign=middle;fontFamily=Helvetica;fontSize=11;fontColor=default;endArrow=classic;" edge="1" parent="1" source="lfMM5lCk48rUv3l5oZ-4-833" target="lfMM5lCk48rUv3l5oZ-4-834">
          <mxGeometry relative="1" as="geometry" />
        </mxCell>
        <mxCell id="lfMM5lCk48rUv3l5oZ-4-833" value="&lt;font style=&quot;font-size: 25px;&quot;&gt;Custom &lt;font color=&quot;#1e69ff&quot;&gt;calldata for the upgrade&lt;/font&gt;, which can be interpreted differently for each upgrade&lt;/font&gt;" style="text;html=1;strokeColor=none;fillColor=none;align=left;verticalAlign=middle;whiteSpace=wrap;rounded=0;fontSize=11;fontFamily=Helvetica;fontColor=default;" vertex="1" parent="1">
          <mxGeometry x="850" y="716.62" width="760" height="60" as="geometry" />
        </mxCell>
        <mxCell id="lfMM5lCk48rUv3l5oZ-4-836" style="edgeStyle=orthogonalEdgeStyle;shape=connector;rounded=0;orthogonalLoop=1;jettySize=auto;html=1;exitX=0;exitY=0.5;exitDx=0;exitDy=0;labelBackgroundColor=default;strokeColor=default;strokeWidth=2;align=center;verticalAlign=middle;fontFamily=Helvetica;fontSize=11;fontColor=default;endArrow=classic;" edge="1" parent="1" source="lfMM5lCk48rUv3l5oZ-4-834">
          <mxGeometry relative="1" as="geometry">
            <mxPoint x="890" y="850.4615384615383" as="targetPoint" />
          </mxGeometry>
        </mxCell>
        <mxCell id="lfMM5lCk48rUv3l5oZ-4-834" value="&lt;font style=&quot;font-size: 25px;&quot;&gt; It typically performs &lt;font color=&quot;#1e69ff&quot;&gt;post-upgrade actions&lt;/font&gt;&lt;/font&gt;" style="text;html=1;strokeColor=none;fillColor=none;align=center;verticalAlign=middle;whiteSpace=wrap;rounded=0;fontSize=11;fontFamily=Helvetica;fontColor=default;" vertex="1" parent="1">
          <mxGeometry x="1105" y="820" width="460" height="60" as="geometry" />
        </mxCell>
        <mxCell id="lfMM5lCk48rUv3l5oZ-4-837" value="&lt;font style=&quot;font-size: 20px;&quot;&gt;Such as&lt;/font&gt;" style="text;html=1;strokeColor=none;fillColor=none;align=center;verticalAlign=middle;whiteSpace=wrap;rounded=0;fontSize=11;fontFamily=Helvetica;fontColor=default;" vertex="1" parent="1">
          <mxGeometry x="950" y="820" width="110" height="28.97" as="geometry" />
        </mxCell>
        <mxCell id="lfMM5lCk48rUv3l5oZ-4-839" value="" style="shape=waypoint;sketch=0;fillStyle=solid;size=6;pointerEvents=1;points=[];fillColor=none;resizable=0;rotatable=0;perimeter=centerPerimeter;snapToPoint=1;rounded=0;dashed=1;strokeColor=#1E69FF;strokeWidth=5;align=center;verticalAlign=middle;fontFamily=Helvetica;fontSize=11;fontColor=default;html=1;" vertex="1" parent="1">
          <mxGeometry x="840" y="800" width="20" height="20" as="geometry" />
        </mxCell>
        <mxCell id="lfMM5lCk48rUv3l5oZ-4-840" value="&lt;font style=&quot;font-size: 25px;&quot;&gt;Cleaning up&lt;/font&gt;" style="text;html=1;strokeColor=none;fillColor=none;align=center;verticalAlign=middle;whiteSpace=wrap;rounded=0;fontSize=11;fontFamily=Helvetica;fontColor=default;" vertex="1" parent="1">
          <mxGeometry x="670" y="790" width="160" height="40" as="geometry" />
        </mxCell>
        <mxCell id="lfMM5lCk48rUv3l5oZ-4-841" value="" style="shape=waypoint;sketch=0;fillStyle=solid;size=6;pointerEvents=1;points=[];fillColor=none;resizable=0;rotatable=0;perimeter=centerPerimeter;snapToPoint=1;rounded=0;dashed=1;strokeColor=#1E69FF;strokeWidth=5;align=center;verticalAlign=middle;fontFamily=Helvetica;fontSize=11;fontColor=default;html=1;" vertex="1" parent="1">
          <mxGeometry x="720.75" y="1000.73" width="20" height="20" as="geometry" />
        </mxCell>
        <mxCell id="lfMM5lCk48rUv3l5oZ-4-842" value="" style="shape=curlyBracket;whiteSpace=wrap;html=1;rounded=1;labelPosition=left;verticalLabelPosition=middle;align=right;verticalAlign=middle;sketch=0;fillStyle=solid;pointerEvents=1;strokeColor=#000000;strokeWidth=3;fontFamily=Helvetica;fontSize=11;fontColor=default;fillColor=none;direction=west;" vertex="1" parent="1">
          <mxGeometry x="860" y="789.6800000000001" width="20" height="120.63" as="geometry" />
        </mxCell>
        <mxCell id="lfMM5lCk48rUv3l5oZ-4-843" value="&lt;font style=&quot;font-size: 25px;&quot;&gt;Initializing components&lt;/font&gt;" style="text;html=1;strokeColor=none;fillColor=none;align=center;verticalAlign=middle;whiteSpace=wrap;rounded=0;fontSize=11;fontFamily=Helvetica;fontColor=default;" vertex="1" parent="1">
          <mxGeometry x="560" y="870" width="270" height="40" as="geometry" />
        </mxCell>
        <mxCell id="lfMM5lCk48rUv3l5oZ-4-844" value="" style="shape=waypoint;sketch=0;fillStyle=solid;size=6;pointerEvents=1;points=[];fillColor=none;resizable=0;rotatable=0;perimeter=centerPerimeter;snapToPoint=1;rounded=0;dashed=1;strokeColor=#1E69FF;strokeWidth=5;align=center;verticalAlign=middle;fontFamily=Helvetica;fontSize=11;fontColor=default;html=1;" vertex="1" parent="1">
          <mxGeometry x="840" y="880" width="20" height="20" as="geometry" />
        </mxCell>
        <mxCell id="lfMM5lCk48rUv3l5oZ-4-845" value="&lt;font style=&quot;font-size: 25px;&quot;&gt;upgrade&lt;/font&gt;" style="text;html=1;strokeColor=#A9C4EB;fillColor=#2c2e40;align=center;verticalAlign=middle;whiteSpace=wrap;rounded=1;gradientColor=#565872;strokeWidth=3;perimeterSpacing=2;shadow=0;dashed=0;fontColor=#FFFFFF;" vertex="1" parent="1">
          <mxGeometry x="280" y="812.3199999999999" width="140" height="75.36" as="geometry" />
        </mxCell>
        <mxCell id="lfMM5lCk48rUv3l5oZ-4-850" value="" style="edgeStyle=orthogonalEdgeStyle;shape=connector;rounded=0;orthogonalLoop=1;jettySize=auto;html=1;labelBackgroundColor=default;strokeColor=default;strokeWidth=2;align=center;verticalAlign=middle;fontFamily=Helvetica;fontSize=11;fontColor=default;endArrow=classic;" edge="1" parent="1" source="lfMM5lCk48rUv3l5oZ-4-846" target="lfMM5lCk48rUv3l5oZ-4-849">
          <mxGeometry relative="1" as="geometry" />
        </mxCell>
        <mxCell id="lfMM5lCk48rUv3l5oZ-4-846" value="&lt;font style=&quot;font-size: 25px;&quot;&gt;upgrade&lt;/font&gt;" style="text;html=1;strokeColor=#A9C4EB;fillColor=#2c2e40;align=center;verticalAlign=middle;whiteSpace=wrap;rounded=1;gradientColor=#565872;strokeWidth=3;perimeterSpacing=2;shadow=0;dashed=0;fontColor=#FFFFFF;" vertex="1" parent="1">
          <mxGeometry x="290" y="822.3199999999999" width="140" height="75.36" as="geometry" />
        </mxCell>
        <mxCell id="lfMM5lCk48rUv3l5oZ-4-847" value="&lt;font style=&quot;font-size: 25px;&quot;&gt;upgrade&lt;/font&gt;" style="text;html=1;strokeColor=#A9C4EB;fillColor=#2c2e40;align=center;verticalAlign=middle;whiteSpace=wrap;rounded=1;gradientColor=#565872;strokeWidth=3;perimeterSpacing=2;shadow=0;dashed=0;fontColor=#FFFFFF;" vertex="1" parent="1">
          <mxGeometry x="300" y="832.3199999999999" width="140" height="75.36" as="geometry" />
        </mxCell>
        <mxCell id="lfMM5lCk48rUv3l5oZ-4-849" value="" style="shape=singleArrow;whiteSpace=wrap;html=1;arrowWidth=0.4;arrowSize=0.4;fillColor=#2c2e40;strokeColor=#A9C4EB;fontColor=#FFFFFF;gradientColor=#565872;rounded=1;strokeWidth=3;shadow=0;dashed=0;direction=west;" vertex="1" parent="1">
          <mxGeometry y="829.9999999999999" width="80" height="60" as="geometry" />
        </mxCell>
        <mxCell id="lfMM5lCk48rUv3l5oZ-4-853" style="edgeStyle=orthogonalEdgeStyle;shape=connector;rounded=0;orthogonalLoop=1;jettySize=auto;html=1;exitX=0;exitY=0.5;exitDx=0;exitDy=0;entryX=0;entryY=0.5;entryDx=0;entryDy=0;labelBackgroundColor=default;strokeColor=default;strokeWidth=2;align=center;verticalAlign=middle;fontFamily=Helvetica;fontSize=11;fontColor=default;endArrow=classic;" edge="1" parent="1" source="lfMM5lCk48rUv3l5oZ-4-851" target="lfMM5lCk48rUv3l5oZ-4-852">
          <mxGeometry relative="1" as="geometry" />
        </mxCell>
        <mxCell id="lfMM5lCk48rUv3l5oZ-4-851" value="&lt;font style=&quot;&quot;&gt;&lt;span style=&quot;font-size: 25px;&quot;&gt;This is the &lt;/span&gt;&lt;b style=&quot;&quot;&gt;&lt;font color=&quot;#1e69ff&quot; style=&quot;font-size: 30px;&quot;&gt;main function&lt;/font&gt;&lt;/b&gt;&lt;span style=&quot;font-size: 25px;&quot;&gt; that will be called by the &lt;font color=&quot;#1e69ff&quot;&gt;upgrade proxy&lt;/font&gt; when initiating a &lt;font color=&quot;#1e69ff&quot;&gt;zkSync protocol upgrade&lt;/font&gt;&lt;/span&gt;&lt;/font&gt;" style="text;html=1;strokeColor=none;fillColor=none;align=center;verticalAlign=middle;whiteSpace=wrap;rounded=0;fontSize=11;fontFamily=Helvetica;fontColor=default;" vertex="1" parent="1">
          <mxGeometry x="-770" y="826.77" width="770" height="66.47" as="geometry" />
        </mxCell>
        <mxCell id="lfMM5lCk48rUv3l5oZ-4-852" value="&lt;font style=&quot;font-size: 25px;&quot;&gt; It &lt;font color=&quot;#1e69ff&quot;&gt;follows a sequence of steps&lt;/font&gt; to execute the upgrade&lt;/font&gt;" style="text;html=1;strokeColor=none;fillColor=none;align=center;verticalAlign=middle;whiteSpace=wrap;rounded=0;fontSize=11;fontFamily=Helvetica;fontColor=default;" vertex="1" parent="1">
          <mxGeometry x="-730" y="990" width="620" height="42.94" as="geometry" />
        </mxCell>
        <mxCell id="lfMM5lCk48rUv3l5oZ-4-854" value="&lt;font style=&quot;font-size: 25px;&quot;&gt;It calls the &lt;code style=&quot;border: 0px solid rgb(217, 217, 227); box-sizing: border-box; --tw-border-spacing-x: 0; --tw-border-spacing-y: 0; --tw-translate-x: 0; --tw-translate-y: 0; --tw-rotate: 0; --tw-skew-x: 0; --tw-skew-y: 0; --tw-scale-x: 1; --tw-scale-y: 1; --tw-pan-x: ; --tw-pan-y: ; --tw-pinch-zoom: ; --tw-scroll-snap-strictness: proximity; --tw-gradient-from-position: ; --tw-gradient-via-position: ; --tw-gradient-to-position: ; --tw-ordinal: ; --tw-slashed-zero: ; --tw-numeric-figure: ; --tw-numeric-spacing: ; --tw-numeric-fraction: ; --tw-ring-inset: ; --tw-ring-offset-width: 0px; --tw-ring-offset-color: #fff; --tw-ring-color: rgba(69,89,164,.5); --tw-ring-offset-shadow: 0 0 transparent; --tw-ring-shadow: 0 0 transparent; --tw-shadow: 0 0 transparent; --tw-shadow-colored: 0 0 transparent; --tw-blur: ; --tw-brightness: ; --tw-contrast: ; --tw-grayscale: ; --tw-hue-rotate: ; --tw-invert: ; --tw-saturate: ; --tw-sepia: ; --tw-drop-shadow: ; --tw-backdrop-blur: ; --tw-backdrop-brightness: ; --tw-backdrop-contrast: ; --tw-backdrop-grayscale: ; --tw-backdrop-hue-rotate: ; --tw-backdrop-invert: ; --tw-backdrop-opacity: ; --tw-backdrop-saturate: ; --tw-backdrop-sepia: ; font-weight: 600; text-align: left; font-family: &amp;quot;Söhne Mono&amp;quot;, Monaco, &amp;quot;Andale Mono&amp;quot;, &amp;quot;Ubuntu Mono&amp;quot;, monospace !important;&quot;&gt;upgrade&lt;/code&gt;&lt;span style=&quot;font-family: Söhne, ui-sans-serif, system-ui, -apple-system, &amp;quot;Segoe UI&amp;quot;, Roboto, Ubuntu, Cantarell, &amp;quot;Noto Sans&amp;quot;, sans-serif, &amp;quot;Helvetica Neue&amp;quot;, Arial, &amp;quot;Apple Color Emoji&amp;quot;, &amp;quot;Segoe UI Emoji&amp;quot;, &amp;quot;Segoe UI Symbol&amp;quot;, &amp;quot;Noto Color Emoji&amp;quot;; text-align: left;&quot;&gt; function of the parent &lt;/span&gt;&lt;code style=&quot;border: 0px solid rgb(217, 217, 227); box-sizing: border-box; --tw-border-spacing-x: 0; --tw-border-spacing-y: 0; --tw-translate-x: 0; --tw-translate-y: 0; --tw-rotate: 0; --tw-skew-x: 0; --tw-skew-y: 0; --tw-scale-x: 1; --tw-scale-y: 1; --tw-pan-x: ; --tw-pan-y: ; --tw-pinch-zoom: ; --tw-scroll-snap-strictness: proximity; --tw-gradient-from-position: ; --tw-gradient-via-position: ; --tw-gradient-to-position: ; --tw-ordinal: ; --tw-slashed-zero: ; --tw-numeric-figure: ; --tw-numeric-spacing: ; --tw-numeric-fraction: ; --tw-ring-inset: ; --tw-ring-offset-width: 0px; --tw-ring-offset-color: #fff; --tw-ring-color: rgba(69,89,164,.5); --tw-ring-offset-shadow: 0 0 transparent; --tw-ring-shadow: 0 0 transparent; --tw-shadow: 0 0 transparent; --tw-shadow-colored: 0 0 transparent; --tw-blur: ; --tw-brightness: ; --tw-contrast: ; --tw-grayscale: ; --tw-hue-rotate: ; --tw-invert: ; --tw-saturate: ; --tw-sepia: ; --tw-drop-shadow: ; --tw-backdrop-blur: ; --tw-backdrop-brightness: ; --tw-backdrop-contrast: ; --tw-backdrop-grayscale: ; --tw-backdrop-hue-rotate: ; --tw-backdrop-invert: ; --tw-backdrop-opacity: ; --tw-backdrop-saturate: ; --tw-backdrop-sepia: ; font-weight: 600; text-align: left; font-family: &amp;quot;Söhne Mono&amp;quot;, Monaco, &amp;quot;Andale Mono&amp;quot;, &amp;quot;Ubuntu Mono&amp;quot;, monospace !important;&quot;&gt;BaseZkSyncUpgrade&lt;/code&gt;&lt;span style=&quot;font-family: Söhne, ui-sans-serif, system-ui, -apple-system, &amp;quot;Segoe UI&amp;quot;, Roboto, Ubuntu, Cantarell, &amp;quot;Noto Sans&amp;quot;, sans-serif, &amp;quot;Helvetica Neue&amp;quot;, Arial, &amp;quot;Apple Color Emoji&amp;quot;, &amp;quot;Segoe UI Emoji&amp;quot;, &amp;quot;Segoe UI Symbol&amp;quot;, &amp;quot;Noto Color Emoji&amp;quot;; text-align: left;&quot;&gt; contract to ensure that the upgrade is ready and the protocol version is set correctly&lt;/span&gt;&lt;/font&gt;" style="text;html=1;strokeColor=#9673a6;fillColor=#e1d5e7;align=center;verticalAlign=middle;whiteSpace=wrap;rounded=0;fontSize=11;fontFamily=Helvetica;dashed=1;strokeWidth=3;" vertex="1" parent="1">
          <mxGeometry x="-110" y="951.47" width="780" height="118.53" as="geometry" />
        </mxCell>
        <mxCell id="lfMM5lCk48rUv3l5oZ-4-857" style="edgeStyle=orthogonalEdgeStyle;shape=connector;rounded=0;orthogonalLoop=1;jettySize=auto;html=1;exitX=1;exitY=0.5;exitDx=0;exitDy=0;entryX=1;entryY=0.5;entryDx=0;entryDy=0;labelBackgroundColor=default;strokeColor=default;strokeWidth=2;align=center;verticalAlign=middle;fontFamily=Helvetica;fontSize=11;fontColor=default;endArrow=classic;" edge="1" parent="1" source="lfMM5lCk48rUv3l5oZ-4-855" target="lfMM5lCk48rUv3l5oZ-4-856">
          <mxGeometry relative="1" as="geometry" />
        </mxCell>
        <mxCell id="lfMM5lCk48rUv3l5oZ-4-855" value="&lt;font style=&quot;font-size: 25px;&quot;&gt;It updates the &lt;b&gt;protocol version&lt;/b&gt;, &lt;b&gt;bootloader bytecode hash, default account bytecode hash, verifier, and verifier parameters&lt;/b&gt; based on the proposed upgrade.&lt;/font&gt;" style="text;html=1;strokeColor=#9673a6;fillColor=#e1d5e7;align=center;verticalAlign=middle;whiteSpace=wrap;rounded=0;fontSize=11;fontFamily=Helvetica;dashed=1;strokeWidth=3;" vertex="1" parent="1">
          <mxGeometry x="805" y="951.47" width="792.5" height="120" as="geometry" />
        </mxCell>
        <mxCell id="lfMM5lCk48rUv3l5oZ-4-856" value="&lt;font style=&quot;font-size: 25px;&quot;&gt;It sets the &lt;b&gt;hash of the L2 system contract upgrade transaction&lt;/b&gt;, which must be unique for each upgrade.&lt;/font&gt;" style="text;html=1;strokeColor=#9673a6;fillColor=#e1d5e7;align=center;verticalAlign=middle;whiteSpace=wrap;rounded=0;fontSize=11;fontFamily=Helvetica;dashed=1;strokeWidth=3;" vertex="1" parent="1">
          <mxGeometry x="920" y="1120" width="675" height="120" as="geometry" />
        </mxCell>
        <mxCell id="lfMM5lCk48rUv3l5oZ-4-858" value="" style="shape=waypoint;sketch=0;fillStyle=solid;size=6;pointerEvents=1;points=[];fillColor=none;resizable=0;rotatable=0;perimeter=centerPerimeter;snapToPoint=1;rounded=0;dashed=1;strokeColor=#1E69FF;strokeWidth=5;align=center;verticalAlign=middle;fontFamily=Helvetica;fontSize=11;fontColor=default;html=1;" vertex="1" parent="1">
          <mxGeometry x="850" y="1170" width="20" height="20" as="geometry" />
        </mxCell>
        <mxCell id="lfMM5lCk48rUv3l5oZ-4-859" value="&lt;font style=&quot;font-size: 25px;&quot;&gt;It &lt;b&gt;updates&lt;/b&gt; the &lt;b&gt;allow list&lt;/b&gt; with the &lt;b&gt;new contract address&lt;/b&gt;&lt;/font&gt;" style="text;html=1;strokeColor=#9673a6;fillColor=#e1d5e7;align=center;verticalAlign=middle;whiteSpace=wrap;rounded=0;fontSize=11;fontFamily=Helvetica;dashed=1;strokeWidth=3;" vertex="1" parent="1">
          <mxGeometry x="450" y="1119" width="360" height="120" as="geometry" />
        </mxCell>
        <mxCell id="lfMM5lCk48rUv3l5oZ-4-860" value="" style="shape=waypoint;sketch=0;fillStyle=solid;size=6;pointerEvents=1;points=[];fillColor=none;resizable=0;rotatable=0;perimeter=centerPerimeter;snapToPoint=1;rounded=0;dashed=1;strokeColor=#1E69FF;strokeWidth=5;align=center;verticalAlign=middle;fontFamily=Helvetica;fontSize=11;fontColor=default;html=1;" vertex="1" parent="1">
          <mxGeometry x="375" y="1170" width="20" height="20" as="geometry" />
        </mxCell>
        <mxCell id="lfMM5lCk48rUv3l5oZ-4-861" value="&lt;font style=&quot;font-size: 25px;&quot;&gt;It invokes the &lt;code style=&quot;border: 0px solid rgb(217, 217, 227); box-sizing: border-box; --tw-border-spacing-x: 0; --tw-border-spacing-y: 0; --tw-translate-x: 0; --tw-translate-y: 0; --tw-rotate: 0; --tw-skew-x: 0; --tw-skew-y: 0; --tw-scale-x: 1; --tw-scale-y: 1; --tw-pan-x: ; --tw-pan-y: ; --tw-pinch-zoom: ; --tw-scroll-snap-strictness: proximity; --tw-gradient-from-position: ; --tw-gradient-via-position: ; --tw-gradient-to-position: ; --tw-ordinal: ; --tw-slashed-zero: ; --tw-numeric-figure: ; --tw-numeric-spacing: ; --tw-numeric-fraction: ; --tw-ring-inset: ; --tw-ring-offset-width: 0px; --tw-ring-offset-color: #fff; --tw-ring-color: rgba(69,89,164,.5); --tw-ring-offset-shadow: 0 0 transparent; --tw-ring-shadow: 0 0 transparent; --tw-shadow: 0 0 transparent; --tw-shadow-colored: 0 0 transparent; --tw-blur: ; --tw-brightness: ; --tw-contrast: ; --tw-grayscale: ; --tw-hue-rotate: ; --tw-invert: ; --tw-saturate: ; --tw-sepia: ; --tw-drop-shadow: ; --tw-backdrop-blur: ; --tw-backdrop-brightness: ; --tw-backdrop-contrast: ; --tw-backdrop-grayscale: ; --tw-backdrop-hue-rotate: ; --tw-backdrop-invert: ; --tw-backdrop-opacity: ; --tw-backdrop-saturate: ; --tw-backdrop-sepia: ; font-weight: 600; text-align: left; font-family: &amp;quot;Söhne Mono&amp;quot;, Monaco, &amp;quot;Andale Mono&amp;quot;, &amp;quot;Ubuntu Mono&amp;quot;, monospace !important;&quot;&gt;_postUpgrade&lt;/code&gt;&lt;span style=&quot;font-family: Söhne, ui-sans-serif, system-ui, -apple-system, &amp;quot;Segoe UI&amp;quot;, Roboto, Ubuntu, Cantarell, &amp;quot;Noto Sans&amp;quot;, sans-serif, &amp;quot;Helvetica Neue&amp;quot;, Arial, &amp;quot;Apple Color Emoji&amp;quot;, &amp;quot;Segoe UI Emoji&amp;quot;, &amp;quot;Segoe UI Symbol&amp;quot;, &amp;quot;Noto Color Emoji&amp;quot;; text-align: left;&quot;&gt; function to perform any post-upgrade actions&lt;/span&gt;&lt;/font&gt;" style="text;html=1;strokeColor=#9673a6;fillColor=#e1d5e7;align=center;verticalAlign=middle;whiteSpace=wrap;rounded=0;fontSize=11;fontFamily=Helvetica;dashed=1;strokeWidth=3;" vertex="1" parent="1">
          <mxGeometry x="-30" y="1120" width="360" height="120" as="geometry" />
        </mxCell>
        <mxCell id="lfMM5lCk48rUv3l5oZ-4-863" value="" style="shape=waypoint;sketch=0;fillStyle=solid;size=6;pointerEvents=1;points=[];fillColor=none;resizable=0;rotatable=0;perimeter=centerPerimeter;snapToPoint=1;rounded=0;dashed=1;strokeColor=#1E69FF;strokeWidth=5;align=center;verticalAlign=middle;fontFamily=Helvetica;fontSize=11;fontColor=default;html=1;" vertex="1" parent="1">
          <mxGeometry x="-110" y="1170" width="20" height="20" as="geometry" />
        </mxCell>
        <mxCell id="lfMM5lCk48rUv3l5oZ-4-864" value="&lt;font style=&quot;font-size: 25px;&quot;&gt;Finally, it emits an &lt;code style=&quot;border: 0px solid rgb(217, 217, 227); box-sizing: border-box; --tw-border-spacing-x: 0; --tw-border-spacing-y: 0; --tw-translate-x: 0; --tw-translate-y: 0; --tw-rotate: 0; --tw-skew-x: 0; --tw-skew-y: 0; --tw-scale-x: 1; --tw-scale-y: 1; --tw-pan-x: ; --tw-pan-y: ; --tw-pinch-zoom: ; --tw-scroll-snap-strictness: proximity; --tw-gradient-from-position: ; --tw-gradient-via-position: ; --tw-gradient-to-position: ; --tw-ordinal: ; --tw-slashed-zero: ; --tw-numeric-figure: ; --tw-numeric-spacing: ; --tw-numeric-fraction: ; --tw-ring-inset: ; --tw-ring-offset-width: 0px; --tw-ring-offset-color: #fff; --tw-ring-color: rgba(69,89,164,.5); --tw-ring-offset-shadow: 0 0 transparent; --tw-ring-shadow: 0 0 transparent; --tw-shadow: 0 0 transparent; --tw-shadow-colored: 0 0 transparent; --tw-blur: ; --tw-brightness: ; --tw-contrast: ; --tw-grayscale: ; --tw-hue-rotate: ; --tw-invert: ; --tw-saturate: ; --tw-sepia: ; --tw-drop-shadow: ; --tw-backdrop-blur: ; --tw-backdrop-brightness: ; --tw-backdrop-contrast: ; --tw-backdrop-grayscale: ; --tw-backdrop-hue-rotate: ; --tw-backdrop-invert: ; --tw-backdrop-opacity: ; --tw-backdrop-saturate: ; --tw-backdrop-sepia: ; font-weight: 600; text-align: left; font-family: &amp;quot;Söhne Mono&amp;quot;, Monaco, &amp;quot;Andale Mono&amp;quot;, &amp;quot;Ubuntu Mono&amp;quot;, monospace !important;&quot;&gt;UpgradeComplete&lt;/code&gt;&lt;span style=&quot;font-family: Söhne, ui-sans-serif, system-ui, -apple-system, &amp;quot;Segoe UI&amp;quot;, Roboto, Ubuntu, Cantarell, &amp;quot;Noto Sans&amp;quot;, sans-serif, &amp;quot;Helvetica Neue&amp;quot;, Arial, &amp;quot;Apple Color Emoji&amp;quot;, &amp;quot;Segoe UI Emoji&amp;quot;, &amp;quot;Segoe UI Symbol&amp;quot;, &amp;quot;Noto Color Emoji&amp;quot;; text-align: left;&quot;&gt; event to signal the completion of the upgrade&lt;/span&gt;&lt;/font&gt;" style="text;html=1;strokeColor=#9673a6;fillColor=#e1d5e7;align=center;verticalAlign=middle;whiteSpace=wrap;rounded=0;fontSize=11;fontFamily=Helvetica;dashed=1;strokeWidth=3;" vertex="1" parent="1">
          <mxGeometry x="-590" y="1119" width="450" height="121" as="geometry" />
        </mxCell>
        <mxCell id="lfMM5lCk48rUv3l5oZ-4-865" value="" style="html=1;shadow=0;dashed=0;align=center;verticalAlign=middle;shape=mxgraph.arrows2.arrow;dy=0.6;dx=40;direction=south;notch=0;rounded=1;fontFamily=Helvetica;fontSize=12;fontColor=#FFFFFF;fillColor=#2c2e40;gradientColor=#565872;strokeColor=#1E69FF;strokeWidth=3;" vertex="1" parent="1">
          <mxGeometry x="-680.0100000000001" y="1150" width="70" height="130" as="geometry" />
        </mxCell>
        <mxCell id="lfMM5lCk48rUv3l5oZ-4-867" style="edgeStyle=orthogonalEdgeStyle;shape=connector;rounded=0;orthogonalLoop=1;jettySize=auto;html=1;exitX=1;exitY=0.5;exitDx=0;exitDy=0;labelBackgroundColor=default;strokeColor=default;strokeWidth=2;align=center;verticalAlign=middle;fontFamily=Helvetica;fontSize=11;fontColor=default;endArrow=classic;" edge="1" parent="1" source="lfMM5lCk48rUv3l5oZ-4-866">
          <mxGeometry relative="1" as="geometry">
            <mxPoint x="-269.9999999999998" y="1335.076923076923" as="targetPoint" />
          </mxGeometry>
        </mxCell>
        <mxCell id="lfMM5lCk48rUv3l5oZ-4-866" value="&lt;font color=&quot;#ccffff&quot; style=&quot;font-size: 30px;&quot;&gt;Events&lt;/font&gt;" style="text;html=1;strokeColor=#A9C4EB;fillColor=#2c2e40;align=center;verticalAlign=middle;whiteSpace=wrap;rounded=1;gradientColor=#565872;strokeWidth=3;perimeterSpacing=2;shadow=0;dashed=0;fontColor=#FFFFFF;" vertex="1" parent="1">
          <mxGeometry x="-800.01" y="1300" width="310" height="70" as="geometry" />
        </mxCell>
        <mxCell id="lfMM5lCk48rUv3l5oZ-4-869" style="edgeStyle=orthogonalEdgeStyle;shape=connector;rounded=0;orthogonalLoop=1;jettySize=auto;html=1;exitX=1;exitY=0.5;exitDx=0;exitDy=0;labelBackgroundColor=default;strokeColor=default;strokeWidth=2;align=center;verticalAlign=middle;fontFamily=Helvetica;fontSize=11;fontColor=default;endArrow=classic;" edge="1" parent="1" source="lfMM5lCk48rUv3l5oZ-4-868">
          <mxGeometry relative="1" as="geometry">
            <mxPoint x="210" y="1335.076923076923" as="targetPoint" />
          </mxGeometry>
        </mxCell>
        <mxCell id="lfMM5lCk48rUv3l5oZ-4-868" value="&lt;font style=&quot;font-size: 25px;&quot;&gt;The contract emits an&lt;/font&gt;" style="text;html=1;strokeColor=none;fillColor=none;align=center;verticalAlign=middle;whiteSpace=wrap;rounded=0;fontSize=11;fontFamily=Helvetica;fontColor=default;" vertex="1" parent="1">
          <mxGeometry x="-260" y="1313.53" width="250" height="42.94" as="geometry" />
        </mxCell>
        <mxCell id="lfMM5lCk48rUv3l5oZ-4-872" value="" style="edgeStyle=orthogonalEdgeStyle;shape=connector;rounded=0;orthogonalLoop=1;jettySize=auto;html=1;labelBackgroundColor=default;strokeColor=default;strokeWidth=2;align=center;verticalAlign=middle;fontFamily=Helvetica;fontSize=11;fontColor=default;endArrow=classic;" edge="1" parent="1" source="lfMM5lCk48rUv3l5oZ-4-870" target="lfMM5lCk48rUv3l5oZ-4-871">
          <mxGeometry relative="1" as="geometry" />
        </mxCell>
        <mxCell id="lfMM5lCk48rUv3l5oZ-4-870" value="&lt;font style=&quot;font-size: 25px;&quot;&gt;UpgradeComplete&lt;/font&gt;" style="text;html=1;strokeColor=#A9C4EB;fillColor=#2c2e40;align=center;verticalAlign=middle;whiteSpace=wrap;rounded=1;gradientColor=#565872;strokeWidth=3;perimeterSpacing=2;shadow=0;dashed=0;fontColor=#FFFFFF;" vertex="1" parent="1">
          <mxGeometry x="220" y="1297.32" width="240" height="72.68" as="geometry" />
        </mxCell>
        <mxCell id="lfMM5lCk48rUv3l5oZ-4-871" value="" style="shape=singleArrow;whiteSpace=wrap;html=1;arrowWidth=0.4;arrowSize=0.4;fillColor=#2c2e40;strokeColor=#A9C4EB;fontColor=#FFFFFF;gradientColor=#565872;rounded=1;strokeWidth=3;shadow=0;dashed=0;" vertex="1" parent="1">
          <mxGeometry x="620" y="1303.6599999999999" width="80" height="60" as="geometry" />
        </mxCell>
        <mxCell id="lfMM5lCk48rUv3l5oZ-4-873" value="&lt;font style=&quot;font-size: 25px;&quot;&gt;UpgradeComplete&lt;/font&gt;" style="text;html=1;strokeColor=#A9C4EB;fillColor=#2c2e40;align=center;verticalAlign=middle;whiteSpace=wrap;rounded=1;gradientColor=#565872;strokeWidth=3;perimeterSpacing=2;shadow=0;dashed=0;fontColor=#FFFFFF;" vertex="1" parent="1">
          <mxGeometry x="230" y="1307.32" width="240" height="72.68" as="geometry" />
        </mxCell>
        <mxCell id="lfMM5lCk48rUv3l5oZ-4-874" value="&lt;font style=&quot;font-size: 25px;&quot;&gt;UpgradeComplete&lt;/font&gt;" style="text;html=1;strokeColor=#A9C4EB;fillColor=#2c2e40;align=center;verticalAlign=middle;whiteSpace=wrap;rounded=1;gradientColor=#565872;strokeWidth=3;perimeterSpacing=2;shadow=0;dashed=0;fontColor=#FFFFFF;" vertex="1" parent="1">
          <mxGeometry x="240" y="1317.32" width="240" height="72.68" as="geometry" />
        </mxCell>
        <mxCell id="lfMM5lCk48rUv3l5oZ-4-875" value="&lt;font style=&quot;font-size: 25px;&quot;&gt;&lt;font color=&quot;#1e69ff&quot;&gt;Event to notify users&lt;/font&gt; about the successful completion of a protocol upgrade&lt;/font&gt;" style="text;html=1;strokeColor=none;fillColor=none;align=center;verticalAlign=middle;whiteSpace=wrap;rounded=0;fontSize=11;fontFamily=Helvetica;fontColor=default;" vertex="1" parent="1">
          <mxGeometry x="706" y="1300.49" width="480" height="66.34" as="geometry" />
        </mxCell>
        <mxCell id="lfMM5lCk48rUv3l5oZ-4-881" style="edgeStyle=orthogonalEdgeStyle;shape=connector;rounded=0;orthogonalLoop=1;jettySize=auto;html=1;exitX=0;exitY=1;exitDx=0;exitDy=0;exitPerimeter=0;labelBackgroundColor=default;strokeColor=default;strokeWidth=2;align=center;verticalAlign=middle;fontFamily=Helvetica;fontSize=11;fontColor=default;endArrow=classic;entryX=1;entryY=0.5;entryDx=0;entryDy=0;" edge="1" parent="1" source="lfMM5lCk48rUv3l5oZ-4-876" target="lfMM5lCk48rUv3l5oZ-4-882">
          <mxGeometry relative="1" as="geometry">
            <mxPoint x="900" y="1510" as="targetPoint" />
          </mxGeometry>
        </mxCell>
        <mxCell id="lfMM5lCk48rUv3l5oZ-4-876" value="" style="shape=umlActor;verticalLabelPosition=bottom;verticalAlign=middle;html=1;outlineConnect=0;rounded=0;sketch=0;fillStyle=solid;pointerEvents=1;strokeColor=#9673a6;strokeWidth=3;align=center;fontFamily=Helvetica;fontSize=11;fontColor=default;fillColor=#e1d5e7;gradientColor=none;dashed=1;" vertex="1" parent="1">
          <mxGeometry x="1190" y="1280" width="120" height="180" as="geometry" />
        </mxCell>
        <mxCell id="lfMM5lCk48rUv3l5oZ-4-877" value="" style="shape=umlActor;verticalLabelPosition=bottom;verticalAlign=middle;html=1;outlineConnect=0;rounded=0;sketch=0;fillStyle=solid;pointerEvents=1;strokeColor=#9673a6;strokeWidth=3;align=center;fontFamily=Helvetica;fontSize=11;fontColor=default;fillColor=#e1d5e7;gradientColor=none;dashed=1;" vertex="1" parent="1">
          <mxGeometry x="1332" y="1330" width="120" height="173.53" as="geometry" />
        </mxCell>
        <mxCell id="lfMM5lCk48rUv3l5oZ-4-878" value="" style="shape=umlActor;verticalLabelPosition=bottom;verticalAlign=middle;html=1;outlineConnect=0;rounded=0;sketch=0;fillStyle=solid;pointerEvents=1;strokeColor=#9673a6;strokeWidth=3;align=center;fontFamily=Helvetica;fontSize=11;fontColor=default;fillColor=#e1d5e7;gradientColor=none;dashed=1;" vertex="1" parent="1">
          <mxGeometry x="1460" y="1280" width="120" height="180" as="geometry" />
        </mxCell>
        <mxCell id="lfMM5lCk48rUv3l5oZ-4-879" value="&lt;b style=&quot;&quot;&gt;&lt;font style=&quot;font-size: 35px;&quot;&gt;USERS&lt;/font&gt;&lt;/b&gt;" style="text;html=1;strokeColor=none;fillColor=none;align=center;verticalAlign=middle;whiteSpace=wrap;rounded=0;fontSize=11;fontFamily=Helvetica;fontColor=default;" vertex="1" parent="1">
          <mxGeometry x="1329.5" y="1264.51" width="125" height="42.81" as="geometry" />
        </mxCell>
        <mxCell id="lfMM5lCk48rUv3l5oZ-4-884" style="edgeStyle=orthogonalEdgeStyle;shape=connector;rounded=0;orthogonalLoop=1;jettySize=auto;html=1;exitX=0;exitY=0.5;exitDx=0;exitDy=0;labelBackgroundColor=default;strokeColor=default;strokeWidth=2;align=center;verticalAlign=middle;fontFamily=Helvetica;fontSize=11;fontColor=default;endArrow=classic;" edge="1" parent="1" source="lfMM5lCk48rUv3l5oZ-4-882">
          <mxGeometry relative="1" as="geometry">
            <mxPoint x="450" y="1482.7692307692305" as="targetPoint" />
          </mxGeometry>
        </mxCell>
        <mxCell id="lfMM5lCk48rUv3l5oZ-4-882" value="&lt;font style=&quot;font-size: 25px;&quot;&gt;This &lt;font color=&quot;#1e69ff&quot;&gt;event includes&lt;/font&gt; information about&lt;/font&gt;" style="text;html=1;strokeColor=none;fillColor=none;align=center;verticalAlign=middle;whiteSpace=wrap;rounded=0;fontSize=11;fontFamily=Helvetica;fontColor=default;" vertex="1" parent="1">
          <mxGeometry x="670" y="1450" width="425" height="66.34" as="geometry" />
        </mxCell>
        <mxCell id="lfMM5lCk48rUv3l5oZ-4-883" value="" style="shape=curlyBracket;whiteSpace=wrap;html=1;rounded=1;labelPosition=left;verticalLabelPosition=middle;align=right;verticalAlign=middle;sketch=0;fillStyle=solid;pointerEvents=1;strokeColor=#000000;strokeWidth=3;fontFamily=Helvetica;fontSize=11;fontColor=default;fillColor=none;direction=west;" vertex="1" parent="1">
          <mxGeometry x="410" y="1398.17" width="20" height="170" as="geometry" />
        </mxCell>
        <mxCell id="lfMM5lCk48rUv3l5oZ-4-885" value="" style="shape=waypoint;sketch=0;fillStyle=solid;size=6;pointerEvents=1;points=[];fillColor=none;resizable=0;rotatable=0;perimeter=centerPerimeter;snapToPoint=1;rounded=0;dashed=1;strokeColor=#1E69FF;strokeWidth=5;align=center;verticalAlign=middle;fontFamily=Helvetica;fontSize=11;fontColor=default;html=1;" vertex="1" parent="1">
          <mxGeometry x="380" y="1416.83" width="20" height="20" as="geometry" />
        </mxCell>
        <mxCell id="lfMM5lCk48rUv3l5oZ-4-886" value="&lt;font style=&quot;font-size: 25px;&quot;&gt;&lt;font color=&quot;#1e69ff&quot;&gt;New&lt;/font&gt; protocol version&lt;/font&gt;" style="text;html=1;strokeColor=none;fillColor=none;align=center;verticalAlign=middle;whiteSpace=wrap;rounded=0;fontSize=11;fontFamily=Helvetica;fontColor=default;" vertex="1" parent="1">
          <mxGeometry x="120" y="1403.6599999999999" width="255" height="46.34" as="geometry" />
        </mxCell>
        <mxCell id="lfMM5lCk48rUv3l5oZ-4-887" value="" style="shape=waypoint;sketch=0;fillStyle=solid;size=6;pointerEvents=1;points=[];fillColor=none;resizable=0;rotatable=0;perimeter=centerPerimeter;snapToPoint=1;rounded=0;dashed=1;strokeColor=#1E69FF;strokeWidth=5;align=center;verticalAlign=middle;fontFamily=Helvetica;fontSize=11;fontColor=default;html=1;" vertex="1" parent="1">
          <mxGeometry x="380" y="1473.17" width="20" height="20" as="geometry" />
        </mxCell>
        <mxCell id="lfMM5lCk48rUv3l5oZ-4-888" value="&lt;font style=&quot;font-size: 25px;&quot;&gt;The &lt;b&gt;&lt;font color=&quot;#1e69ff&quot;&gt;L2 system contract upgrade&lt;/font&gt;&lt;/b&gt; transaction hash&lt;/font&gt;" style="text;html=1;strokeColor=none;fillColor=none;align=center;verticalAlign=middle;whiteSpace=wrap;rounded=0;fontSize=11;fontFamily=Helvetica;fontColor=default;" vertex="1" parent="1">
          <mxGeometry x="-220" y="1460" width="595" height="46.34" as="geometry" />
        </mxCell>
        <mxCell id="lfMM5lCk48rUv3l5oZ-4-889" value="" style="shape=waypoint;sketch=0;fillStyle=solid;size=6;pointerEvents=1;points=[];fillColor=none;resizable=0;rotatable=0;perimeter=centerPerimeter;snapToPoint=1;rounded=0;dashed=1;strokeColor=#1E69FF;strokeWidth=5;align=center;verticalAlign=middle;fontFamily=Helvetica;fontSize=11;fontColor=default;html=1;" vertex="1" parent="1">
          <mxGeometry x="380" y="1530" width="20" height="20" as="geometry" />
        </mxCell>
        <mxCell id="lfMM5lCk48rUv3l5oZ-4-890" value="&lt;font style=&quot;font-size: 25px;&quot;&gt;&lt;font color=&quot;#1e69ff&quot;&gt;Proposed upgrade &lt;/font&gt;details&lt;/font&gt;" style="text;html=1;strokeColor=none;fillColor=none;align=center;verticalAlign=middle;whiteSpace=wrap;rounded=0;fontSize=11;fontFamily=Helvetica;fontColor=default;" vertex="1" parent="1">
          <mxGeometry x="70" y="1516.83" width="305" height="46.34" as="geometry" />
        </mxCell>
      </root>
    </mxGraphModel>
  </diagram>
</mxfile>
